<mxfile host="app.diagrams.net" modified="2022-08-01T07:09:05.611Z" agent="5.0 (Macintosh; Intel Mac OS X 10_15_7) AppleWebKit/537.36 (KHTML, like Gecko) Chrome/103.0.5060.134 Safari/537.36 Edg/103.0.1264.77" etag="a8o1XxxnGRsqtDuN6rOB" version="20.2.2" type="github">
  <diagram id="SaaI4buoQtLoFnTuJNDq" name="第 1 页">
    <mxGraphModel dx="1426" dy="769" grid="1" gridSize="10" guides="1" tooltips="1" connect="1" arrows="1" fold="1" page="1" pageScale="1" pageWidth="827" pageHeight="1169" math="0" shadow="0">
      <root>
        <mxCell id="0" />
        <mxCell id="1" parent="0" />
        <mxCell id="rDKzDnIZjr_XVD0auimE-2" value="" style="rounded=1;whiteSpace=wrap;html=1;" vertex="1" parent="1">
          <mxGeometry x="79" y="110" width="670" height="100" as="geometry" />
        </mxCell>
        <mxCell id="rDKzDnIZjr_XVD0auimE-3" value="Web端" style="rounded=0;whiteSpace=wrap;html=1;" vertex="1" parent="1">
          <mxGeometry x="110" y="130" width="120" height="60" as="geometry" />
        </mxCell>
        <mxCell id="rDKzDnIZjr_XVD0auimE-4" value="移动端" style="rounded=0;whiteSpace=wrap;html=1;" vertex="1" parent="1">
          <mxGeometry x="270" y="130" width="120" height="60" as="geometry" />
        </mxCell>
        <mxCell id="rDKzDnIZjr_XVD0auimE-5" value="咚咚（IM/搜索）" style="rounded=0;whiteSpace=wrap;html=1;" vertex="1" parent="1">
          <mxGeometry x="440" y="130" width="120" height="60" as="geometry" />
        </mxCell>
        <mxCell id="rDKzDnIZjr_XVD0auimE-6" value="其他场景" style="rounded=0;whiteSpace=wrap;html=1;" vertex="1" parent="1">
          <mxGeometry x="600" y="130" width="120" height="60" as="geometry" />
        </mxCell>
        <mxCell id="rDKzDnIZjr_XVD0auimE-7" value="解析器&lt;br&gt;[Server, DAT]" style="rounded=0;whiteSpace=wrap;html=1;fillColor=#FFFFFF;" vertex="1" parent="1">
          <mxGeometry x="210" y="250" width="150" height="150" as="geometry" />
        </mxCell>
        <mxCell id="rDKzDnIZjr_XVD0auimE-8" value="" style="shape=flexArrow;endArrow=classic;html=1;rounded=0;" edge="1" parent="1">
          <mxGeometry width="50" height="50" relative="1" as="geometry">
            <mxPoint x="280" y="210" as="sourcePoint" />
            <mxPoint x="280" y="250" as="targetPoint" />
          </mxGeometry>
        </mxCell>
        <mxCell id="rDKzDnIZjr_XVD0auimE-9" value="" style="shape=flexArrow;endArrow=classic;html=1;rounded=0;exitX=0.151;exitY=1;exitDx=0;exitDy=0;exitPerimeter=0;entryX=0.46;entryY=-0.007;entryDx=0;entryDy=0;entryPerimeter=0;" edge="1" parent="1" target="rDKzDnIZjr_XVD0auimE-10">
          <mxGeometry width="50" height="50" relative="1" as="geometry">
            <mxPoint x="530.1700000000001" y="210" as="sourcePoint" />
            <mxPoint x="530" y="240" as="targetPoint" />
          </mxGeometry>
        </mxCell>
        <mxCell id="rDKzDnIZjr_XVD0auimE-10" value="解析器&lt;br&gt;[Client, DAT]" style="rounded=0;whiteSpace=wrap;html=1;fillColor=#FFFFFF;" vertex="1" parent="1">
          <mxGeometry x="460" y="250" width="150" height="150" as="geometry" />
        </mxCell>
        <mxCell id="rDKzDnIZjr_XVD0auimE-11" value="词条库&lt;br&gt;[Server]" style="rounded=1;whiteSpace=wrap;html=1;" vertex="1" parent="1">
          <mxGeometry x="79" y="470" width="670" height="85" as="geometry" />
        </mxCell>
        <mxCell id="rDKzDnIZjr_XVD0auimE-12" value="匹配结果&lt;br&gt;Array&lt;br&gt;{keyword,&lt;br&gt;startPos,&lt;br&gt;endPos}" style="rounded=0;whiteSpace=wrap;html=1;" vertex="1" parent="1">
          <mxGeometry x="79" y="210" width="71" height="195" as="geometry" />
        </mxCell>
        <mxCell id="rDKzDnIZjr_XVD0auimE-13" value="" style="shape=flexArrow;endArrow=classic;html=1;rounded=0;exitX=0.007;exitY=0.447;exitDx=0;exitDy=0;exitPerimeter=0;" edge="1" parent="1" source="rDKzDnIZjr_XVD0auimE-7">
          <mxGeometry width="50" height="50" relative="1" as="geometry">
            <mxPoint x="50" y="390" as="sourcePoint" />
            <mxPoint x="150" y="317" as="targetPoint" />
          </mxGeometry>
        </mxCell>
        <mxCell id="rDKzDnIZjr_XVD0auimE-14" value="匹配结果&lt;br&gt;Array&lt;br&gt;{keyword,&lt;br&gt;startPos,&lt;br&gt;endPos}" style="rounded=0;whiteSpace=wrap;html=1;" vertex="1" parent="1">
          <mxGeometry x="678" y="210" width="71" height="195" as="geometry" />
        </mxCell>
        <mxCell id="rDKzDnIZjr_XVD0auimE-15" value="" style="shape=flexArrow;endArrow=classic;html=1;rounded=0;exitX=0.007;exitY=0.447;exitDx=0;exitDy=0;exitPerimeter=0;" edge="1" parent="1">
          <mxGeometry width="50" height="50" relative="1" as="geometry">
            <mxPoint x="610" y="324.54999999999995" as="sourcePoint" />
            <mxPoint x="680" y="325" as="targetPoint" />
          </mxGeometry>
        </mxCell>
        <mxCell id="rDKzDnIZjr_XVD0auimE-16" value="" style="edgeStyle=orthogonalEdgeStyle;rounded=0;orthogonalLoop=1;jettySize=auto;html=1;exitX=0.313;exitY=0.997;exitDx=0;exitDy=0;exitPerimeter=0;" edge="1" parent="1">
          <mxGeometry relative="1" as="geometry">
            <mxPoint x="251.29999999999995" y="399.54999999999995" as="sourcePoint" />
            <mxPoint x="250" y="470" as="targetPoint" />
            <Array as="points">
              <mxPoint x="250.35" y="400" />
            </Array>
          </mxGeometry>
        </mxCell>
        <mxCell id="rDKzDnIZjr_XVD0auimE-17" value="检查版本" style="edgeLabel;html=1;align=center;verticalAlign=middle;resizable=0;points=[];" vertex="1" connectable="0" parent="rDKzDnIZjr_XVD0auimE-16">
          <mxGeometry x="0.0649" relative="1" as="geometry">
            <mxPoint as="offset" />
          </mxGeometry>
        </mxCell>
        <mxCell id="rDKzDnIZjr_XVD0auimE-18" value="" style="edgeStyle=orthogonalEdgeStyle;rounded=0;orthogonalLoop=1;jettySize=auto;html=1;exitX=0.716;exitY=-0.035;exitDx=0;exitDy=0;exitPerimeter=0;" edge="1" parent="1">
          <mxGeometry relative="1" as="geometry">
            <mxPoint x="310" y="472.0250000000001" as="sourcePoint" />
            <mxPoint x="311" y="400" as="targetPoint" />
            <Array as="points">
              <mxPoint x="311" y="472" />
            </Array>
          </mxGeometry>
        </mxCell>
        <mxCell id="rDKzDnIZjr_XVD0auimE-19" value="数据同步" style="edgeLabel;html=1;align=center;verticalAlign=middle;resizable=0;points=[];" vertex="1" connectable="0" parent="rDKzDnIZjr_XVD0auimE-18">
          <mxGeometry x="0.1096" y="-1" relative="1" as="geometry">
            <mxPoint as="offset" />
          </mxGeometry>
        </mxCell>
        <mxCell id="rDKzDnIZjr_XVD0auimE-20" value="" style="edgeStyle=orthogonalEdgeStyle;rounded=0;orthogonalLoop=1;jettySize=auto;html=1;exitX=0.313;exitY=0.997;exitDx=0;exitDy=0;exitPerimeter=0;" edge="1" parent="1">
          <mxGeometry relative="1" as="geometry">
            <mxPoint x="500.29999999999995" y="400" as="sourcePoint" />
            <mxPoint x="499" y="470.45000000000005" as="targetPoint" />
            <Array as="points">
              <mxPoint x="499.35" y="400.45" />
            </Array>
          </mxGeometry>
        </mxCell>
        <mxCell id="rDKzDnIZjr_XVD0auimE-21" value="检查版本" style="edgeLabel;html=1;align=center;verticalAlign=middle;resizable=0;points=[];" vertex="1" connectable="0" parent="rDKzDnIZjr_XVD0auimE-20">
          <mxGeometry x="0.0649" relative="1" as="geometry">
            <mxPoint as="offset" />
          </mxGeometry>
        </mxCell>
        <mxCell id="rDKzDnIZjr_XVD0auimE-22" value="" style="edgeStyle=orthogonalEdgeStyle;rounded=0;orthogonalLoop=1;jettySize=auto;html=1;exitX=0.716;exitY=-0.035;exitDx=0;exitDy=0;exitPerimeter=0;" edge="1" parent="1">
          <mxGeometry relative="1" as="geometry">
            <mxPoint x="559" y="472.47500000000014" as="sourcePoint" />
            <mxPoint x="560" y="400.45000000000005" as="targetPoint" />
            <Array as="points">
              <mxPoint x="560" y="472.45" />
            </Array>
          </mxGeometry>
        </mxCell>
        <mxCell id="rDKzDnIZjr_XVD0auimE-23" value="数据同步" style="edgeLabel;html=1;align=center;verticalAlign=middle;resizable=0;points=[];" vertex="1" connectable="0" parent="rDKzDnIZjr_XVD0auimE-22">
          <mxGeometry x="0.1096" y="-1" relative="1" as="geometry">
            <mxPoint as="offset" />
          </mxGeometry>
        </mxCell>
      </root>
    </mxGraphModel>
  </diagram>
</mxfile>
